<svg width="143" height="143" viewBox="0 0 143 143" fill="none" xmlns="http://www.w3.org/2000/svg">
<g clip-path="url(#clip0_35_379)">
<g filter="url(#filter0_d_35_379)">
<path d="M134.236 100.12H114.916L104.475 92.4956C103.771 91.983 102.853 91.9189 102.087 92.3354C101.322 92.7519 100.863 93.5848 100.863 94.4498V100.088H96.0861C93.2693 100.088 90.9423 102.491 90.9423 105.47V130.203C90.9423 133.15 93.2387 135.585 96.0861 135.585H134.236C137.053 135.585 139.38 133.182 139.38 130.203V105.47C139.38 102.523 137.083 100.12 134.236 100.12ZM134.787 130.235C134.787 130.555 134.542 130.811 134.236 130.811H96.0861C95.7799 130.811 95.535 130.555 95.535 130.235V105.502C95.535 105.182 95.7799 104.926 96.0861 104.926H103.159C104.414 104.926 105.455 103.836 105.455 102.523V99.0631L112.895 104.477C113.293 104.766 113.753 104.894 114.212 104.894H134.236C134.542 104.894 134.787 105.15 134.787 105.47V130.235Z" fill="#038787"/>
</g>
<g filter="url(#filter1_d_35_379)">
<path d="M39.8105 44.2165C40.1779 44.2165 40.5453 44.1204 40.8821 43.9282C41.6476 43.5117 42.1069 42.6788 42.1069 41.8138V36.1754H46.8832C49.7001 36.1754 52.027 33.7727 52.027 30.7933V6.06109C52.027 3.11373 49.7307 0.678955 46.8832 0.678955H8.76404C5.91658 0.678955 3.62024 3.08169 3.62024 6.06109V30.7933C3.62024 33.7406 5.91658 36.1754 8.76404 36.1754H28.0839L38.5246 43.8001C38.892 44.0564 39.3513 44.2165 39.8105 44.2165ZM37.5142 33.7727V37.2326L30.0741 31.8184C29.676 31.5301 29.2167 31.402 28.7575 31.402H8.76404C8.45786 31.402 8.21291 31.1457 8.21291 30.8253V6.06109C8.21291 5.74072 8.45786 5.48443 8.76404 5.48443H46.9139C47.22 5.48443 47.465 5.74072 47.465 6.06109V30.7933C47.465 31.1136 47.22 31.3699 46.9139 31.3699H39.8411C38.5552 31.3699 37.5142 32.4271 37.5142 33.7727Z" fill="#038787"/>
</g>
<g filter="url(#filter2_d_35_379)">
<path d="M106.251 68.1478C106.251 48.0929 90.6667 31.7864 71.5 31.7864C52.3332 31.7864 36.7487 48.0929 36.7487 68.1478C36.7487 88.2026 52.3332 104.509 71.5 104.509C90.6667 104.509 106.251 88.2026 106.251 68.1478ZM73.7963 86.2804C77.1336 86.5367 80.4098 87.4017 83.4409 88.7472C80.9915 94.2896 77.5929 98.198 73.7963 99.3513V86.2804ZM73.7963 81.475V70.5505H87.36C87.1763 75.5162 86.3496 80.1935 85.0943 84.2942C81.5426 82.6924 77.7154 81.7313 73.7963 81.475ZM73.7963 65.745V54.8206C77.7154 54.5643 81.5426 53.6032 85.0943 52.0014C86.3496 56.1021 87.1763 60.7794 87.36 65.745H73.7963ZM73.7963 50.0151V36.9443C77.5929 38.0976 80.9915 41.974 83.4409 47.5483C80.4098 48.8939 77.1336 49.7268 73.7963 50.0151ZM86.3802 42.9671C85.7372 41.7497 85.033 40.6284 84.2982 39.5712C86.3802 40.5964 88.3398 41.8779 90.1462 43.3515C89.3195 44.0564 88.4316 44.6971 87.5437 45.2737C87.1457 44.4728 86.7783 43.704 86.3802 42.9671ZM55.4868 45.2737C54.5989 44.6971 53.711 44.0243 52.8843 43.3515C54.6908 41.8779 56.6197 40.5964 58.7323 39.5712C57.9975 40.5964 57.2933 41.7177 56.6503 42.9671C56.2217 43.704 55.8236 44.4728 55.4868 45.2737ZM69.2036 36.9443V50.0151C65.8663 49.7588 62.5902 48.8939 59.559 47.5483C62.0084 41.974 65.407 38.0655 69.2036 36.9443ZM69.2036 54.8206V65.745H55.6399C55.8236 60.7794 56.6503 56.1021 57.9056 52.0014C61.4573 53.6032 65.2845 54.5643 69.2036 54.8206ZM69.2036 70.5505V81.475C65.2845 81.7313 61.4573 82.6924 57.9056 84.2942C56.6503 80.1935 55.8236 75.5162 55.6399 70.5505H69.2036ZM69.2036 86.2804V99.3513C65.407 98.198 62.0084 94.3216 59.559 88.7793C62.5902 87.4017 65.8663 86.5688 69.2036 86.2804ZM56.6197 93.3285C57.2627 94.5458 57.9669 95.6671 58.7017 96.7243C56.6197 95.6992 54.6602 94.4177 52.8537 92.944C53.6804 92.2392 54.5683 91.5985 55.4562 91.0218C55.8236 91.8228 56.2217 92.5916 56.6197 93.3285ZM86.3802 93.3285C86.7783 92.5916 87.1457 91.7907 87.5131 90.9898C88.401 91.5665 89.2889 92.2392 90.1156 92.912C88.3092 94.3857 86.3802 95.6671 84.2676 96.6923C85.033 95.6992 85.7372 94.5458 86.3802 93.3285ZM89.2583 86.5047C90.8198 81.6672 91.7383 76.253 91.9527 70.5505H101.567C101.046 77.9189 98.0762 84.5505 93.5448 89.6443C92.1976 88.4909 90.7586 87.4338 89.2583 86.5047ZM101.567 65.745H91.9527C91.7383 60.0746 90.8198 54.6284 89.2583 49.7909C90.7586 48.8618 92.1976 47.8046 93.5448 46.6193C98.0762 51.7451 101.046 58.3767 101.567 65.745ZM49.4551 46.6513C50.8023 47.8046 52.2413 48.8618 53.7416 49.7909C52.1801 54.6284 51.2616 60.0426 51.0472 65.745H41.4332C41.9538 58.3767 44.9237 51.7451 49.4551 46.6513ZM41.4332 70.5505H51.0472C51.2616 76.221 52.1801 81.6672 53.7416 86.5047C52.2413 87.4338 50.8023 88.491 49.4551 89.6763C44.9237 84.5505 41.9538 77.8869 41.4332 70.5505Z" fill="#038787"/>
</g>
<g filter="url(#filter3_d_35_379)">
<path d="M14.0609 16.5052H41.617C42.8723 16.5052 43.9133 15.4159 43.9133 14.1024C43.9133 12.7889 42.8723 11.6997 41.617 11.6997H14.0609C12.8056 11.6997 11.7646 12.7889 11.7646 14.1024C11.7646 15.4159 12.775 16.5052 14.0609 16.5052Z" fill="#038787"/>
</g>
<g filter="url(#filter4_d_35_379)">
<path d="M43.9133 22.7523C43.9133 21.4389 42.8723 20.3496 41.617 20.3496H14.0609C12.8056 20.3496 11.7646 21.4389 11.7646 22.7523C11.7646 24.0658 12.8056 25.1551 14.0609 25.1551H41.617C42.8723 25.1551 43.9133 24.0658 43.9133 22.7523Z" fill="#038787"/>
</g>
<g filter="url(#filter5_d_35_379)">
<path d="M128.939 111.141H101.383C100.128 111.141 99.0866 112.23 99.0866 113.543C99.0866 114.857 100.128 115.946 101.383 115.946H128.939C130.194 115.946 131.235 114.857 131.235 113.543C131.235 112.23 130.225 111.141 128.939 111.141Z" fill="#038787"/>
</g>
<g filter="url(#filter6_d_35_379)">
<path d="M128.939 119.791H101.383C100.128 119.791 99.0866 120.88 99.0866 122.193C99.0866 123.507 100.128 124.596 101.383 124.596H128.939C130.194 124.596 131.235 123.507 131.235 122.193C131.235 120.88 130.225 119.791 128.939 119.791Z" fill="#038787"/>
</g>
</g>
<defs>
<filter id="filter0_d_35_379" x="86.9423" y="92.062" width="56.4374" height="51.5227" filterUnits="userSpaceOnUse" color-interpolation-filters="sRGB">
<feFlood flood-opacity="0" result="BackgroundImageFix"/>
<feColorMatrix in="SourceAlpha" type="matrix" values="0 0 0 0 0 0 0 0 0 0 0 0 0 0 0 0 0 0 127 0" result="hardAlpha"/>
<feOffset dy="4"/>
<feGaussianBlur stdDeviation="2"/>
<feComposite in2="hardAlpha" operator="out"/>
<feColorMatrix type="matrix" values="0 0 0 0 0 0 0 0 0 0 0 0 0 0 0 0 0 0 0.25 0"/>
<feBlend mode="normal" in2="BackgroundImageFix" result="effect1_dropShadow_35_379"/>
<feBlend mode="normal" in="SourceGraphic" in2="effect1_dropShadow_35_379" result="shape"/>
</filter>
<filter id="filter1_d_35_379" x="-0.379761" y="0.678955" width="56.4068" height="51.5376" filterUnits="userSpaceOnUse" color-interpolation-filters="sRGB">
<feFlood flood-opacity="0" result="BackgroundImageFix"/>
<feColorMatrix in="SourceAlpha" type="matrix" values="0 0 0 0 0 0 0 0 0 0 0 0 0 0 0 0 0 0 127 0" result="hardAlpha"/>
<feOffset dy="4"/>
<feGaussianBlur stdDeviation="2"/>
<feComposite in2="hardAlpha" operator="out"/>
<feColorMatrix type="matrix" values="0 0 0 0 0 0 0 0 0 0 0 0 0 0 0 0 0 0 0.25 0"/>
<feBlend mode="normal" in2="BackgroundImageFix" result="effect1_dropShadow_35_379"/>
<feBlend mode="normal" in="SourceGraphic" in2="effect1_dropShadow_35_379" result="shape"/>
</filter>
<filter id="filter2_d_35_379" x="32.7487" y="31.7864" width="77.5025" height="80.7229" filterUnits="userSpaceOnUse" color-interpolation-filters="sRGB">
<feFlood flood-opacity="0" result="BackgroundImageFix"/>
<feColorMatrix in="SourceAlpha" type="matrix" values="0 0 0 0 0 0 0 0 0 0 0 0 0 0 0 0 0 0 127 0" result="hardAlpha"/>
<feOffset dy="4"/>
<feGaussianBlur stdDeviation="2"/>
<feComposite in2="hardAlpha" operator="out"/>
<feColorMatrix type="matrix" values="0 0 0 0 0 0 0 0 0 0 0 0 0 0 0 0 0 0 0.25 0"/>
<feBlend mode="normal" in2="BackgroundImageFix" result="effect1_dropShadow_35_379"/>
<feBlend mode="normal" in="SourceGraphic" in2="effect1_dropShadow_35_379" result="shape"/>
</filter>
<filter id="filter3_d_35_379" x="7.76459" y="11.6997" width="40.1487" height="12.8054" filterUnits="userSpaceOnUse" color-interpolation-filters="sRGB">
<feFlood flood-opacity="0" result="BackgroundImageFix"/>
<feColorMatrix in="SourceAlpha" type="matrix" values="0 0 0 0 0 0 0 0 0 0 0 0 0 0 0 0 0 0 127 0" result="hardAlpha"/>
<feOffset dy="4"/>
<feGaussianBlur stdDeviation="2"/>
<feComposite in2="hardAlpha" operator="out"/>
<feColorMatrix type="matrix" values="0 0 0 0 0 0 0 0 0 0 0 0 0 0 0 0 0 0 0.25 0"/>
<feBlend mode="normal" in2="BackgroundImageFix" result="effect1_dropShadow_35_379"/>
<feBlend mode="normal" in="SourceGraphic" in2="effect1_dropShadow_35_379" result="shape"/>
</filter>
<filter id="filter4_d_35_379" x="7.76459" y="20.3496" width="40.1487" height="12.8054" filterUnits="userSpaceOnUse" color-interpolation-filters="sRGB">
<feFlood flood-opacity="0" result="BackgroundImageFix"/>
<feColorMatrix in="SourceAlpha" type="matrix" values="0 0 0 0 0 0 0 0 0 0 0 0 0 0 0 0 0 0 127 0" result="hardAlpha"/>
<feOffset dy="4"/>
<feGaussianBlur stdDeviation="2"/>
<feComposite in2="hardAlpha" operator="out"/>
<feColorMatrix type="matrix" values="0 0 0 0 0 0 0 0 0 0 0 0 0 0 0 0 0 0 0.25 0"/>
<feBlend mode="normal" in2="BackgroundImageFix" result="effect1_dropShadow_35_379"/>
<feBlend mode="normal" in="SourceGraphic" in2="effect1_dropShadow_35_379" result="shape"/>
</filter>
<filter id="filter5_d_35_379" x="95.0866" y="111.141" width="40.1487" height="12.8054" filterUnits="userSpaceOnUse" color-interpolation-filters="sRGB">
<feFlood flood-opacity="0" result="BackgroundImageFix"/>
<feColorMatrix in="SourceAlpha" type="matrix" values="0 0 0 0 0 0 0 0 0 0 0 0 0 0 0 0 0 0 127 0" result="hardAlpha"/>
<feOffset dy="4"/>
<feGaussianBlur stdDeviation="2"/>
<feComposite in2="hardAlpha" operator="out"/>
<feColorMatrix type="matrix" values="0 0 0 0 0 0 0 0 0 0 0 0 0 0 0 0 0 0 0.25 0"/>
<feBlend mode="normal" in2="BackgroundImageFix" result="effect1_dropShadow_35_379"/>
<feBlend mode="normal" in="SourceGraphic" in2="effect1_dropShadow_35_379" result="shape"/>
</filter>
<filter id="filter6_d_35_379" x="95.0866" y="119.791" width="40.1487" height="12.8054" filterUnits="userSpaceOnUse" color-interpolation-filters="sRGB">
<feFlood flood-opacity="0" result="BackgroundImageFix"/>
<feColorMatrix in="SourceAlpha" type="matrix" values="0 0 0 0 0 0 0 0 0 0 0 0 0 0 0 0 0 0 127 0" result="hardAlpha"/>
<feOffset dy="4"/>
<feGaussianBlur stdDeviation="2"/>
<feComposite in2="hardAlpha" operator="out"/>
<feColorMatrix type="matrix" values="0 0 0 0 0 0 0 0 0 0 0 0 0 0 0 0 0 0 0.25 0"/>
<feBlend mode="normal" in2="BackgroundImageFix" result="effect1_dropShadow_35_379"/>
<feBlend mode="normal" in="SourceGraphic" in2="effect1_dropShadow_35_379" result="shape"/>
</filter>
<clipPath id="clip0_35_379">
<rect width="143" height="143" fill="white"/>
</clipPath>
</defs>
</svg>
