<svg width="129" height="144" viewBox="0 0 129 144" fill="none" xmlns="http://www.w3.org/2000/svg">
<g clip-path="url(#clip0_35_369)" filter="url(#filter0_d_35_369)">
<g filter="url(#filter1_d_35_369)">
<path d="M4.43832 0.287842L15.8093 122.156L64.515 135.194L113.41 122.156L124.781 0.287842C124.592 0.287842 4.43832 0.287842 4.43832 0.287842ZM100.523 39.777L64.515 55.0815H99.1965L95.2167 100.617L64.515 109.686L33.6239 100.617L31.7287 77.5658H46.89L47.8376 89.4692L64.136 93.6259H64.3255L81.382 88.9024L82.5191 69.6301H64.515L30.7811 69.4412L29.644 55.0815L64.515 40.5328L66.5997 39.777H64.515H28.1279L26.2327 25.0394H64.515H102.039L100.523 39.777Z" fill="#038787"/>
</g>
</g>
<defs>
<filter id="filter0_d_35_369" x="-4" y="0" width="137" height="151" filterUnits="userSpaceOnUse" color-interpolation-filters="sRGB">
<feFlood flood-opacity="0" result="BackgroundImageFix"/>
<feColorMatrix in="SourceAlpha" type="matrix" values="0 0 0 0 0 0 0 0 0 0 0 0 0 0 0 0 0 0 127 0" result="hardAlpha"/>
<feOffset dy="4"/>
<feGaussianBlur stdDeviation="2"/>
<feComposite in2="hardAlpha" operator="out"/>
<feColorMatrix type="matrix" values="0 0 0 0 0 0 0 0 0 0 0 0 0 0 0 0 0 0 0.25 0"/>
<feBlend mode="normal" in2="BackgroundImageFix" result="effect1_dropShadow_35_369"/>
<feBlend mode="normal" in="SourceGraphic" in2="effect1_dropShadow_35_369" result="shape"/>
</filter>
<filter id="filter1_d_35_369" x="0.438324" y="0.287842" width="128.343" height="142.906" filterUnits="userSpaceOnUse" color-interpolation-filters="sRGB">
<feFlood flood-opacity="0" result="BackgroundImageFix"/>
<feColorMatrix in="SourceAlpha" type="matrix" values="0 0 0 0 0 0 0 0 0 0 0 0 0 0 0 0 0 0 127 0" result="hardAlpha"/>
<feOffset dy="4"/>
<feGaussianBlur stdDeviation="2"/>
<feComposite in2="hardAlpha" operator="out"/>
<feColorMatrix type="matrix" values="0 0 0 0 0 0 0 0 0 0 0 0 0 0 0 0 0 0 0.25 0"/>
<feBlend mode="normal" in2="BackgroundImageFix" result="effect1_dropShadow_35_369"/>
<feBlend mode="normal" in="SourceGraphic" in2="effect1_dropShadow_35_369" result="shape"/>
</filter>
<clipPath id="clip0_35_369">
<rect width="129" height="143" fill="white"/>
</clipPath>
</defs>
</svg>
