<svg width="134" height="151" viewBox="0 0 134 151" fill="none" xmlns="http://www.w3.org/2000/svg">
<g clip-path="url(#clip0_35_344)">
<g filter="url(#filter0_d_35_344)">
<path d="M3.62162 0L14.3951 121.707L63.4959 135.629L112.401 121.707L123.387 0H3.62162ZM103.341 114.209L63.4959 125.554L23.4709 114.209L14.2155 9.68311H112.776L103.341 114.209ZM25.8215 24.9413L26.099 28.9026L29.8044 70.227H63.5122V70.2107H81.9414L80.0805 89.528L63.3653 94.0435V94.0761H63.2347L46.5196 89.5606L45.4585 77.6279H30.6042L32.4488 101.216L63.2347 109.693H63.5122V109.628L94.1513 101.2L94.4288 98.5428L97.8894 59.0604L98.4117 55.0992H63.3653V55.1318H43.5977L42.2591 39.7757H99.7339L100.011 36.5969L100.795 28.9026L101.072 24.9413H63.3653H25.8215Z" fill="#038787"/>
</g>
</g>
<defs>
<filter id="filter0_d_35_344" x="-0.37838" y="0" width="127.765" height="143.629" filterUnits="userSpaceOnUse" color-interpolation-filters="sRGB">
<feFlood flood-opacity="0" result="BackgroundImageFix"/>
<feColorMatrix in="SourceAlpha" type="matrix" values="0 0 0 0 0 0 0 0 0 0 0 0 0 0 0 0 0 0 127 0" result="hardAlpha"/>
<feOffset dy="4"/>
<feGaussianBlur stdDeviation="2"/>
<feComposite in2="hardAlpha" operator="out"/>
<feColorMatrix type="matrix" values="0 0 0 0 0 0 0 0 0 0 0 0 0 0 0 0 0 0 0.25 0"/>
<feBlend mode="normal" in2="BackgroundImageFix" result="effect1_dropShadow_35_344"/>
<feBlend mode="normal" in="SourceGraphic" in2="effect1_dropShadow_35_344" result="shape"/>
</filter>
<clipPath id="clip0_35_344">
<rect width="134" height="151" fill="white"/>
</clipPath>
</defs>
</svg>
