<svg width="149" height="109" viewBox="0 0 149 109" fill="none" xmlns="http://www.w3.org/2000/svg">
<g filter="url(#filter0_d_35_373)">
<path d="M91.6312 71.007C95.1756 78.695 102.855 83.4261 111.716 83.4261C119.986 83.4261 125.303 79.2864 125.303 73.3725C125.303 66.2759 119.986 63.9103 110.535 59.7706L105.218 57.4051C90.4498 50.8998 80.9981 43.2118 80.9981 26.6529C80.9981 11.2768 92.8127 0.0404901 110.535 0.0404901C122.349 -0.550897 133.573 5.36298 139.481 16.0079L123.531 26.0615C121.168 20.739 116.442 17.1907 110.535 17.1907C105.809 16.5993 101.674 20.1477 101.083 24.8788V25.4701C101.083 31.384 104.627 33.7496 113.488 37.8893L118.805 40.2548C135.936 47.3515 145.388 55.0395 145.388 72.1897C145.388 90.5227 131.21 100.576 111.716 100.576C96.3571 101.759 82.1795 93.4797 75.0907 79.8778L91.6312 71.007ZM20.1526 72.7811C23.1063 78.695 26.0599 83.4261 33.1487 83.4261C39.6468 83.4261 43.7819 81.0606 43.7819 71.007V1.81465H63.8668V71.007C63.8668 91.7055 51.4614 101.759 33.7395 101.759C20.7434 102.35 8.92871 95.2538 3.61212 83.4261L20.1526 72.7811Z" fill="#038787"/>
</g>
<defs>
<filter id="filter0_d_35_373" x="-0.387878" y="0" width="149.776" height="109.793" filterUnits="userSpaceOnUse" color-interpolation-filters="sRGB">
<feFlood flood-opacity="0" result="BackgroundImageFix"/>
<feColorMatrix in="SourceAlpha" type="matrix" values="0 0 0 0 0 0 0 0 0 0 0 0 0 0 0 0 0 0 127 0" result="hardAlpha"/>
<feOffset dy="4"/>
<feGaussianBlur stdDeviation="2"/>
<feComposite in2="hardAlpha" operator="out"/>
<feColorMatrix type="matrix" values="0 0 0 0 0 0 0 0 0 0 0 0 0 0 0 0 0 0 0.25 0"/>
<feBlend mode="normal" in2="BackgroundImageFix" result="effect1_dropShadow_35_373"/>
<feBlend mode="normal" in="SourceGraphic" in2="effect1_dropShadow_35_373" result="shape"/>
</filter>
</defs>
</svg>
